<?xml version="1.0" encoding="UTF-8"?>
<svg id="Laag_1" data-name="Laag 1" xmlns="http://www.w3.org/2000/svg" viewBox="0 0 229.35 292.79">
  <path d="m17.5,230.71c-9.67,0-17.5-7.83-17.5-17.5V17.5C0,7.83,7.83,0,17.5,0h108c9.67,0,17.5,7.83,17.5,17.5v74.71c0,4.64-1.84,9.09-5.13,12.37l-48.5,48.5c-6.83,6.83-17.92,6.83-24.75,0s-6.83-17.91,0-24.75l43.37-43.37v-49.96H35v178.21c0,9.67-7.83,17.5-17.5,17.5Z"/>
  <path d="m211.85,292.79h-108c-9.67,0-17.5-7.83-17.5-17.5v-74.71c0-4.64,1.84-9.09,5.13-12.37l48.5-48.5c6.83-6.83,17.91-6.83,24.75,0,6.83,6.83,6.83,17.91,0,24.75l-43.37,43.38v49.96h73V79.58c0-9.67,7.83-17.5,17.5-17.5s17.5,7.83,17.5,17.5v195.71c0,9.67-7.83,17.5-17.5,17.5Z"/>
</svg>